<svg width="15" height="15" viewBox="0 0 15 15" fill="none" xmlns="http://www.w3.org/2000/svg">
<g clip-path="url(#clip0)">
<path fill-rule="evenodd" clip-rule="evenodd" d="M14.1826 15.031L10.8118 11.6602L11.6603 10.8117L15.0311 14.1825L14.1826 15.031Z" fill="#647994"/>
<path fill-rule="evenodd" clip-rule="evenodd" d="M6.62933 1.16179C3.60976 1.16179 1.16191 3.60964 1.16191 6.62921C1.16191 9.64878 3.60976 12.0966 6.62933 12.0966C9.6489 12.0966 12.0967 9.64878 12.0967 6.62921C12.0967 3.60964 9.6489 1.16179 6.62933 1.16179ZM-0.0380859 6.62921C-0.0380859 2.9469 2.94702 -0.038208 6.62933 -0.038208C10.3116 -0.038208 13.2967 2.9469 13.2967 6.62921C13.2967 10.3115 10.3116 13.2966 6.62933 13.2966C2.94702 13.2966 -0.0380859 10.3115 -0.0380859 6.62921Z" fill="#647994"/>
</g>
<defs>
<clipPath id="clip0">
<rect width="15" height="15" fill="white"/>
</clipPath>
</defs>
</svg>
